<?xml version="1.0" encoding="UTF-8" standalone="no"?>
<!DOCTYPE svg PUBLIC "-//W3C//DTD SVG 1.1//EN"
 "http://www.w3.org/Graphics/SVG/1.1/DTD/svg11.dtd">
<!-- Generated by graphviz version 2.38.0 (20140413.2041)
 -->
<!-- Title: G Pages: 1 -->
<svg width="190pt" height="315pt"
 viewBox="0.00 0.00 190.00 315.00" xmlns="http://www.w3.org/2000/svg" xmlns:xlink="http://www.w3.org/1999/xlink">
<g id="graph0" class="graph" transform="scale(1 1) rotate(0) translate(4 311)">
<title>G</title>
<polygon fill="white" stroke="none" points="-4,4 -4,-311 186,-311 186,4 -4,4"/>
<g id="clust1" class="cluster"><title>cluster_0</title>
<polygon fill="lightgrey" stroke="lightgrey" points="8,-8 8,-299 87,-299 87,-8 8,-8"/>
<text text-anchor="middle" x="47.5" y="-283.8" font-family="Times New Roman,serif" font-size="14.00">process #1</text>
</g>
<g id="clust2" class="cluster"><title>cluster_1</title>
<polygon fill="none" stroke="blue" points="95,-8 95,-299 174,-299 174,-8 95,-8"/>
<text text-anchor="middle" x="134.5" y="-283.8" font-family="Times New Roman,serif" font-size="14.00">process #2</text>
</g>
<!-- test -->
<g id="node1" class="node"><title>test</title>
<ellipse fill="white" stroke="white" cx="47" cy="-250" rx="27" ry="18"/>
<text text-anchor="middle" x="47" y="-246.3" font-family="Times New Roman,serif" font-size="14.00">test</text>
</g>
<!-- a1 -->
<g id="node2" class="node"><title>a1</title>
<ellipse fill="white" stroke="white" cx="47" cy="-178" rx="27" ry="18"/>
<text text-anchor="middle" x="47" y="-174.3" font-family="Times New Roman,serif" font-size="14.00">a1</text>
</g>
<!-- test&#45;&gt;a1 -->
<g id="edge1" class="edge"><title>test&#45;&gt;a1</title>
<path fill="none" stroke="black" d="M47,-231.697C47,-223.983 47,-214.712 47,-206.112"/>
<polygon fill="black" stroke="black" points="50.5001,-206.104 47,-196.104 43.5001,-206.104 50.5001,-206.104"/>
</g>
<!-- a2 -->
<g id="node3" class="node"><title>a2</title>
<ellipse fill="white" stroke="white" cx="47" cy="-106" rx="27" ry="18"/>
<text text-anchor="middle" x="47" y="-102.3" font-family="Times New Roman,serif" font-size="14.00">a2</text>
</g>
<!-- a1&#45;&gt;a2 -->
<g id="edge2" class="edge"><title>a1&#45;&gt;a2</title>
<path fill="none" stroke="black" d="M47,-159.697C47,-151.983 47,-142.712 47,-134.112"/>
<polygon fill="black" stroke="black" points="50.5001,-134.104 47,-124.104 43.5001,-134.104 50.5001,-134.104"/>
</g>
<!-- a3 -->
<g id="node4" class="node"><title>a3</title>
<ellipse fill="white" stroke="white" cx="47" cy="-34" rx="27" ry="18"/>
<text text-anchor="middle" x="47" y="-30.3" font-family="Times New Roman,serif" font-size="14.00">a3</text>
</g>
<!-- a2&#45;&gt;a3 -->
<g id="edge3" class="edge"><title>a2&#45;&gt;a3</title>
<path fill="none" stroke="black" d="M47,-87.6966C47,-79.9827 47,-70.7125 47,-62.1124"/>
<polygon fill="black" stroke="black" points="50.5001,-62.1043 47,-52.1043 43.5001,-62.1044 50.5001,-62.1043"/>
</g>
<!-- b0 -->
<g id="node5" class="node"><title>b0</title>
<ellipse fill="lightgrey" stroke="black" cx="134" cy="-250" rx="27" ry="18"/>
<text text-anchor="middle" x="134" y="-246.3" font-family="Times New Roman,serif" font-size="14.00">b0</text>
</g>
<!-- b1 -->
<g id="node6" class="node"><title>b1</title>
<ellipse fill="lightgrey" stroke="black" cx="134" cy="-178" rx="27" ry="18"/>
<text text-anchor="middle" x="134" y="-174.3" font-family="Times New Roman,serif" font-size="14.00">b1</text>
</g>
<!-- b0&#45;&gt;b1 -->
<g id="edge4" class="edge"><title>b0&#45;&gt;b1</title>
<path fill="none" stroke="black" d="M134,-231.697C134,-223.983 134,-214.712 134,-206.112"/>
<polygon fill="black" stroke="black" points="137.5,-206.104 134,-196.104 130.5,-206.104 137.5,-206.104"/>
</g>
<!-- b2 -->
<g id="node7" class="node"><title>b2</title>
<ellipse fill="lightgrey" stroke="black" cx="134" cy="-106" rx="27" ry="18"/>
<text text-anchor="middle" x="134" y="-102.3" font-family="Times New Roman,serif" font-size="14.00">b2</text>
</g>
<!-- b1&#45;&gt;b2 -->
<g id="edge5" class="edge"><title>b1&#45;&gt;b2</title>
<path fill="none" stroke="black" d="M134,-159.697C134,-151.983 134,-142.712 134,-134.112"/>
<polygon fill="black" stroke="black" points="137.5,-134.104 134,-124.104 130.5,-134.104 137.5,-134.104"/>
</g>
<!-- b3 -->
<g id="node8" class="node"><title>b3</title>
<ellipse fill="lightgrey" stroke="black" cx="134" cy="-34" rx="27" ry="18"/>
<text text-anchor="middle" x="134" y="-30.3" font-family="Times New Roman,serif" font-size="14.00">b3</text>
</g>
<!-- b2&#45;&gt;b3 -->
<g id="edge6" class="edge"><title>b2&#45;&gt;b3</title>
<path fill="none" stroke="black" d="M134,-87.6966C134,-79.9827 134,-70.7125 134,-62.1124"/>
<polygon fill="black" stroke="black" points="137.5,-62.1043 134,-52.1043 130.5,-62.1044 137.5,-62.1043"/>
</g>
</g>
</svg>
